
<svg version="1.1" xmlns="http://www.w3.org/2000/svg" width="611" height="820">
<path d="M0 0 C1.26125606 -0.00326884 2.52251211 -0.00653768 3.82198805 -0.00990558 C7.31718986 -0.01854442 10.81212542 -0.00849604 14.30730402 0.00463676 C18.08095314 0.01554505 21.85457794 0.00911938 25.62823486 0.00485229 C33.02735367 -0.00078451 40.42636888 0.00954654 47.82547004 0.02514026 C56.47343415 0.04272186 65.12137842 0.04410065 73.76935761 0.04475585 C89.24033919 0.04644524 104.71127398 0.062262 120.18223572 0.08624268 C135.11811205 0.10937658 150.05395879 0.12364995 164.98985291 0.1272583 C165.90527326 0.12748107 166.82069361 0.12770384 167.76385397 0.12793335 C169.60860423 0.12837603 171.45335448 0.12881806 173.29810473 0.12925942 C174.20862582 0.12947899 175.11914692 0.12969855 176.05725956 0.12992477 C176.96579961 0.13014076 177.87433965 0.13035675 178.81041122 0.13057928 C193.12486804 0.13431261 207.43932023 0.14568106 221.75377183 0.15805517 C226.90046347 0.16244583 232.04715469 0.16591093 237.19384745 0.16866867 C301.44612968 0.20413722 301.44612968 0.20413722 323.885849 0.80206299 C324.60127684 0.82028783 325.31670468 0.83851268 326.05381215 0.85728979 C372.39620653 2.09841534 410.97110319 18.77176406 444.60679626 50.36749268 C445.30417908 50.9991333 446.00156189 51.63077393 446.72007751 52.28155518 C476.49964601 80.27311646 492.28319142 123.20435815 493.60679626 163.36749268 C495.88339035 240.6879933 467.03963812 306.87122759 416.60679626 364.36749268 C415.82304626 365.26468018 415.03929626 366.16186768 414.23179626 367.08624268 C409.41293869 372.52466765 404.34089424 377.66292444 399.17320251 382.76593018 C396.98423315 384.98488543 394.93307863 387.24132122 392.91929626 389.61749268 C390.11718016 392.88994032 387.1071676 395.68411694 383.82164001 398.46514893 C381.29077964 400.63892142 378.86188337 402.90757129 376.41929626 405.17999268 C345.02926842 433.59667553 305.43065997 455.51050702 265.60679626 469.36749268 C264.64048279 469.70377686 263.67416931 470.04006104 262.67857361 470.38653564 C251.00282105 474.39389937 239.24378139 477.88983552 227.23179626 480.74249268 C225.75610168 481.10044922 225.75610168 481.10044922 224.25059509 481.46563721 C208.20621639 485.10174958 191.97830736 485.66333393 175.59507751 485.56280518 C173.76135413 485.559061 171.92762871 485.5562207 170.09390259 485.55422974 C165.33805011 485.54670361 160.58232574 485.52715421 155.82652283 485.50482178 C150.94535555 485.4841215 146.06416695 485.47517708 141.18296814 485.46514893 C131.65752216 485.44389433 122.13216999 485.40989712 112.60679626 485.36749268 C112.06541483 477.71491671 113.38162931 471.98983465 116.27085876 464.93780518 C116.6545311 463.962146 117.03820343 462.98648682 117.4335022 461.98126221 C118.68391409 458.81186166 119.95765872 455.65242049 121.23179626 452.49249268 C122.10872017 450.28205807 122.98394839 448.07095005 123.85752869 445.85919189 C125.610822 441.42525958 127.37222649 436.99469492 129.14048767 432.56671143 C132.17807548 424.94916698 135.13431242 417.30108011 138.08528137 409.64968872 C139.73477043 405.38325258 141.4025933 401.12396904 143.06954956 396.86433411 C144.5471568 393.08684144 146.01823305 389.30696887 147.47984314 385.52325439 C149.05887089 381.43650674 150.65103861 377.35509445 152.25190735 373.27685547 C152.855671 371.7323083 153.45493942 370.18599514 154.04933167 368.63781738 C154.87006953 366.50233204 155.70709932 364.37393001 156.54820251 362.24639893 C157.01943542 361.03540527 157.49066833 359.82441162 157.97618103 358.57672119 C159.76488125 355.0563642 161.58002052 352.89004645 164.60679626 350.36749268 C167.32932741 349.48318887 169.88755666 349.21626087 172.73838806 349.11798096 C173.54410751 349.08769806 174.34982697 349.05741516 175.17996216 349.0262146 C176.47985832 348.98245193 176.47985832 348.98245193 177.80601501 348.93780518 C179.67517273 348.86401814 181.54431284 348.789784 183.41343689 348.71514893 C186.33297494 348.60286835 189.25250376 348.49393196 192.17247009 348.39337158 C237.82082399 346.79030305 279.30328064 327.86951976 311.29429626 294.99639893 C319.83382164 285.28845876 327.21389174 274.59059173 333.60679626 263.36749268 C333.97401794 262.72731201 334.34123962 262.08713135 334.71958923 261.42755127 C347.83608406 238.35681928 357.12810862 210.98065786 350.60679626 184.36749268 C347.87700341 175.29922075 344.51098759 166.85649325 338.60679626 159.36749268 C337.93390564 158.43550049 337.93390564 158.43550049 337.24742126 157.48468018 C328.94410503 146.7090282 313.65889687 141.41171636 300.60679626 139.36749268 C289.51998286 138.01684358 278.3424103 138.14369782 267.19273376 138.05108643 C265.05458298 138.0303352 262.91643503 138.00929097 260.77828979 137.98797607 C255.03609431 137.93222099 249.29386115 137.88277334 243.55159378 137.83506393 C239.97943595 137.80497279 236.40729751 137.77314558 232.8351593 137.74081421 C185.75878374 137.3174015 138.68465983 137.25001978 91.60679626 137.36749268 C88.45901051 152.21296321 86.03048259 167.10119428 83.85679626 182.11749268 C83.53826121 184.29073949 83.21925317 186.46391703 82.89976501 188.63702393 C82.13001257 193.87973114 81.36600766 199.12324915 80.60679626 204.36749268 C81.23240448 204.36527206 81.8580127 204.36305145 82.50257874 204.36076355 C89.02396574 204.33861064 95.54534202 204.32354429 102.0667572 204.31256104 C104.49937881 204.30753764 106.9319974 204.30071777 109.36460876 204.29205322 C112.86461633 204.27990042 116.36458392 204.27424436 119.86460876 204.26983643 C120.9492038 204.26467514 122.03379883 204.25951385 123.15126038 204.25419617 C128.08182564 204.25383128 132.76267234 204.31172208 137.60679626 205.36749268 C136.96329512 211.15960211 134.90823575 216.22198895 132.80210876 221.60577393 C132.21613922 223.12377342 132.21613922 223.12377342 131.61833191 224.67243958 C130.32826867 228.01042839 129.03009061 231.34519763 127.73179626 234.67999268 C126.82326279 237.02566763 125.91522963 239.37153642 125.00767517 241.71759033 C123.13315136 246.56032648 121.25522384 251.40172158 119.37437439 256.24200439 C116.80462256 262.85550716 114.24352942 269.47232855 111.68492126 276.09014893 C103.46739623 297.33490628 95.19396731 318.55743145 86.88404846 339.76620483 C82.40973467 351.18638884 77.95246822 362.612139 73.56358337 374.06549072 C69.27164785 385.25993894 64.9401124 396.43900852 60.60679626 407.61749268 C60.19645142 408.67610504 59.78610657 409.73471741 59.36332703 410.82540894 C53.17597663 426.78336405 46.94867194 442.72532167 40.69941711 458.65911865 C33.72811895 476.43985192 26.8541366 494.2575322 19.98945618 512.07965088 C14.14019091 527.26163664 8.24635451 542.42344021 2.24226379 557.54483032 C-3.77888306 572.71754596 -9.65129581 587.94713387 -15.51820374 603.17999268 C-27.26347214 633.67537479 -27.26347214 633.67537479 -33.20570374 648.67999268 C-38.03822627 660.88556724 -42.79305628 673.11994803 -47.51820374 685.36749268 C-47.87115509 686.28229401 -48.22410645 687.19709534 -48.5877533 688.13961792 C-50.04411579 691.91453167 -51.50040845 695.68947235 -52.95657349 699.46446228 C-57.38271661 710.93642501 -61.82364408 722.40265425 -66.26820374 733.86749268 C-66.67131775 734.90740356 -67.07443176 735.94731445 -67.48976135 737.01873779 C-72.63140021 750.27968421 -77.78895852 763.53402584 -83.00990295 776.76397705 C-83.39162659 777.73141846 -83.77335022 778.69885986 -84.16664124 779.69561768 C-84.71336487 781.06556885 -84.71336487 781.06556885 -85.27113342 782.4631958 C-86.10033987 784.6094621 -86.88624761 786.77257178 -87.64808655 788.94366455 C-88.07186584 790.13024658 -88.49564514 791.31682861 -88.93226624 792.53936768 C-89.30818909 793.62830322 -89.68411194 794.71723877 -90.07142639 795.83917236 C-91.39320374 798.36749268 -91.39320374 798.36749268 -93.54701233 799.23175049 C-94.46087708 799.29894287 -94.46087708 799.29894287 -95.39320374 799.36749268 C-102.2114571 789.14011263 -95.28696922 769.50579055 -93.11585999 758.36358643 C-92.66109302 755.97780585 -92.20768041 753.59176676 -91.75552368 751.20549011 C-90.79862705 746.16273399 -89.8354008 741.12124659 -88.86763 736.08056641 C-86.69498152 724.74359817 -84.5890414 713.39420358 -82.47750092 702.04572868 C-81.39236253 696.21750496 -80.30327982 690.39001904 -79.21458721 684.5624584 C-70.84449064 639.75143138 -62.51172257 594.93505054 -54.51820374 550.05499268 C-54.35020641 549.11186722 -54.18220909 548.16874176 -54.00912094 547.19703674 C-52.49077705 538.67118904 -50.97467928 530.1449427 -49.46054077 521.61834717 C-45.65422592 500.18651092 -41.81332595 478.76090245 -37.96094131 457.33730316 C-37.58391554 455.24058196 -37.20696942 453.14384643 -36.83010483 451.04709625 C-30.49195085 415.78512909 -24.03555991 380.54573417 -17.4795208 345.3236227 C-16.64113598 340.81890389 -15.80402829 336.31394844 -14.96742249 331.80889893 C-14.80952114 330.95922861 -14.6516198 330.1095583 -14.48893356 329.2341404 C-12.17722949 316.78130394 -9.95814186 304.31582721 -7.86700439 291.82392883 C-7.68462723 290.74123215 -7.50225006 289.65853546 -7.31434631 288.54302979 C-7.15903946 287.60833359 -7.0037326 286.67363739 -6.84371948 285.71061707 C-6.39320374 283.36749268 -6.39320374 283.36749268 -5.39320374 280.36749268 C-17.32401352 279.09388375 -29.29374858 279.03708513 -41.2782135 278.81524658 C-70.18139124 278.26672279 -70.18139124 278.26672279 -74.39320374 274.36749268 C-74.67688179 272.4627676 -74.67688179 272.4627676 -74.34196472 270.20353699 C-74.21294895 269.30925932 -74.08393318 268.41498165 -73.95100784 267.49360466 C-72.7876245 260.97363362 -71.53462675 254.48021516 -70.21302795 247.99078369 C-69.88212342 246.34755757 -69.55165065 244.70424445 -69.22157288 243.06085205 C-68.32416086 238.59905638 -67.42076308 234.1384914 -66.51633596 229.67811322 C-65.55348565 224.92400853 -64.59635549 220.1687523 -63.63859558 215.41362 C-61.80809829 206.3297847 -59.97274109 197.24693866 -58.13553917 188.16445726 C-55.50729593 175.1702429 -52.88626515 162.17457366 -50.26555252 149.17883873 C-49.86819394 147.20854834 -49.4708233 145.23826037 -49.07344055 143.26797485 C-48.77910484 141.80860459 -48.77910484 141.80860459 -48.47882295 140.3197521 C-47.2935507 134.44450476 -46.10603427 128.569716 -44.91671491 122.69528663 C-41.07600447 103.72418357 -37.25661132 84.74979903 -33.53996348 65.75395072 C-33.0142761 63.06976852 -32.4869555 60.38591317 -31.95893288 57.70218945 C-31.78880822 56.83751153 -31.61868356 55.97283362 -31.4434036 55.08195335 C-31.10598837 53.36738174 -30.76848742 51.65282701 -30.43089736 49.93828982 C-29.46609361 45.03286669 -28.51254391 40.12543029 -27.56767464 35.21613073 C-26.98983426 32.22731592 -26.40174126 29.2405862 -25.81084013 26.25432897 C-25.54262413 24.88728734 -25.2787712 23.51938077 -25.01977205 22.150563 C-21.9301189 5.8435045 -21.9301189 5.8435045 -16.03109264 1.71390057 C-10.68856298 -0.26340668 -5.65319805 -0.03862834 0 0 Z " fill="#00c951" transform="translate(106.39320373535156,12.63250732421875)"/>
</svg>
